# xmcd CD database file
#
# Track frame offsets:
#	150
#	26612
#	51094
#	68972
#	96936
#	121005
#	144438
#	171687
#
# Disc length: 2616 seconds
#
# Revision: 0
# Processed by: cddbd v1.5.2PL0 Copyright (c) Steve Scherf et al.
# Submitted via: CDex 1.70beta2
#
DISCID=6f0a3608
DTITLE=Con Artists with Graeme Lyall - Esperanca
DYEAR=2006
DGENRE=Jazz
TTITLE0=I beg your pardon
TTITLE1=The Kid
TTITLE2=The Manic Impressive
TTITLE3=Here's that rainy day
TTITLE4=Never say yes
TTITLE5=You must believe in spring
TTITLE6=Gary's theme
TTITLE7=Esperanca
EXTD=YEAR: 2006
EXTT0=
EXTT1=
EXTT2=
EXTT3=
EXTT4=
EXTT5=
EXTT6=
EXTT7=
PLAYORDER=
